<svg id="Layer_1" data-name="Layer 1" xmlns="http://www.w3.org/2000/svg" xmlns:xlink="http://www.w3.org/1999/xlink" viewBox="0 0 566 136"><defs><style>.cls-1{fill:#e9292b;}.cls-2{fill:#249045;}.cls-3{fill:#f8bc1b;}.cls-4{fill:#212121;}.cls-5{fill:#be9e4b;}.cls-6{fill:#eb2727;}.cls-7{fill:#30a849;}.cls-8{fill:#ffe24d;}.cls-9{fill:#fff;}.cls-10{fill:#010101;}.cls-11{fill:url(#linear-gradient);}.cls-12{fill:url(#linear-gradient-2);}.cls-13{fill:url(#linear-gradient-3);}.cls-14{fill:url(#linear-gradient-4);}.cls-15{fill:url(#linear-gradient-5);}</style><linearGradient id="linear-gradient" x1="559.36" y1="35.41" x2="201.67" y2="35.41" gradientTransform="matrix(1, 0, 0, -1, 0, 138)" gradientUnits="userSpaceOnUse"><stop offset="0.59" stop-color="#1f7a3a"/><stop offset="0.64" stop-color="#249045"/><stop offset="0.71" stop-color="#279345"/><stop offset="0.78" stop-color="#329c43"/><stop offset="0.84" stop-color="#43aa41"/><stop offset="0.89" stop-color="#5bbf3e"/><stop offset="0.95" stop-color="#7bda3b"/><stop offset="1" stop-color="#a1fa36"/><stop offset="1" stop-color="#a2fb36"/></linearGradient><linearGradient id="linear-gradient-2" x1="378.57" y1="152.05" x2="330.7" y2="-44.01" gradientTransform="matrix(1, 0, 0, -1, 0, 138)" gradientUnits="userSpaceOnUse"><stop offset="0.37" stop-color="#b38713"/><stop offset="0.47" stop-color="#f8bc1b"/><stop offset="0.69" stop-color="#f8ba1c"/><stop offset="0.76" stop-color="#f7b31f"/><stop offset="0.82" stop-color="#f6a824"/><stop offset="0.87" stop-color="#f4972b"/><stop offset="0.9" stop-color="#f28135"/><stop offset="0.94" stop-color="#f06540"/><stop offset="0.97" stop-color="#ed464e"/><stop offset="1" stop-color="#e9225d"/><stop offset="1" stop-color="#e91e5f"/></linearGradient><linearGradient id="linear-gradient-3" x1="278.48" y1="128.07" x2="461.56" y2="26.84" gradientTransform="matrix(1, 0, 0, -1, 0, 138)" gradientUnits="userSpaceOnUse"><stop offset="0.12" stop-color="#ab1546"/><stop offset="0.33" stop-color="#e9292b"/><stop offset="1" stop-color="#fbe336"/></linearGradient><linearGradient id="linear-gradient-4" x1="362.24" y1="130.86" x2="238.39" y2="39.23" gradientTransform="matrix(1, 0, 0, -1, 0, 138)" gradientUnits="userSpaceOnUse"><stop offset="0" stop-color="#e9292b"/><stop offset="0.18" stop-color="#e92c2b"/><stop offset="0.33" stop-color="#ea362c"/><stop offset="0.47" stop-color="#ec482d"/><stop offset="0.6" stop-color="#ee602e"/><stop offset="0.72" stop-color="#f17f30"/><stop offset="0.84" stop-color="#f5a632"/><stop offset="0.96" stop-color="#f9d235"/><stop offset="1" stop-color="#fbe336"/></linearGradient><linearGradient id="linear-gradient-5" x1="254.35" y1="123.34" x2="371.63" y2="-66.6" gradientTransform="matrix(1, 0, 0, -1, 0, 138)" gradientUnits="userSpaceOnUse"><stop offset="0" stop-color="#e91e5f"/><stop offset="0" stop-color="#e9225d"/><stop offset="0.02" stop-color="#ed464e"/><stop offset="0.04" stop-color="#f06540"/><stop offset="0.06" stop-color="#f28135"/><stop offset="0.08" stop-color="#f4972b"/><stop offset="0.11" stop-color="#f6a824"/><stop offset="0.15" stop-color="#f7b31f"/><stop offset="0.2" stop-color="#f8ba1c"/><stop offset="0.34" stop-color="#f8bc1b"/><stop offset="0.35" stop-color="#f4ba1c"/><stop offset="0.43" stop-color="#dab022"/><stop offset="0.52" stop-color="#c7a926"/><stop offset="0.62" stop-color="#bca428"/><stop offset="0.72" stop-color="#b8a329"/></linearGradient></defs><rect class="cls-1" x="203" y="6.29" width="4.96" height="30.59"/><rect class="cls-2" x="203" y="99.12" width="4.96" height="30.59"/><polygon class="cls-3" points="205.23 60.62 207.46 53.21 207.46 60.84 211.64 54.66 209.41 61.84 215.32 57.17 211.14 63.35 218.05 60.62 212.14 65.3 219.77 64.58 212.64 67.25 220.05 68.98 212.36 69.48 219.05 73.43 211.64 71.71 216.82 77.17 210.41 73.43 213.59 80.12 208.41 74.66 209.63 82.07 206.46 75.16 205.23 82.85 204.23 75.16 201 82.07 202 74.66 196.82 80.12 200.27 73.43 193.58 77.17 198.77 71.71 191.41 73.43 198.04 69.48 190.41 68.98 197.82 67.25 190.91 64.58 198.32 65.3 192.36 60.62 199.55 63.35 195.09 57.17 201 61.84 198.77 54.66 203 60.84 203 53.21 205.23 60.62"/><path class="cls-4" d="M37.18,98s-10-2.34-24.55,9.1c0,0,6.6-.63,4.13,2.62l-5.48,7.2S10,118.43,11,119.43s16.65-2.23,21.5-5.27l-5.9-5.67Z"/><path class="cls-4" d="M114.49,98s10-2.34,24.55,9.1c0,0-6.6-.63-4.13,2.62l5.48,7.24s1.25,1.47.25,2.47-16.65-2.23-21.49-5.27L125,108.5Z"/><path class="cls-4" d="M124.26,108.44,113.14,97.55a53.24,53.24,0,0,1-74.61,0L27.41,108.44s17.84,21.1,48.35,21.14h.15c30.47-.09,48.35-21.14,48.35-21.14"/><path class="cls-4" d="M65.9,103.72s-3,3.33.36,4.8c0,0,3.06.48,1.11,2.63l-1.47,1.73a5.86,5.86,0,0,0,.44-2.58s-2.94-1.35-3.45-2.5c0,0-2.31-.48-3.66,3.49,0,0,.83-3.73-.67-4.56,0,0-3.34.13-4.33-.87-.8-.8-1,2.77-1,2.77-.59-7.66,1.75-3.12,4.25-3.93s1.27-3.8,1.27-3.8Z"/><path class="cls-5" d="M65.64,103.44c-1.2,1.35-2,3.37-.52,4.8.68.63,1.91.59,2.42,1.35s-1.51,2.54-1.94,3l.59.35c.24-.58,1-2.62.16-3a9.45,9.45,0,0,1-1.55-.87c-.4-.24-.78-.5-1.16-.78s-.4-.64-.68-.81a2.46,2.46,0,0,0-1.62.24c-1.39.6-2.11,2.18-2.59,3.5.24.07.48.11.72.19a9.1,9.1,0,0,0,.1-3.41,2.19,2.19,0,0,0-1-1.52c-.27-.19-1,0-1.31-.08a4.94,4.94,0,0,1-2.94-.76c-.23-.19-.67-.35-.91,0a5.75,5.75,0,0,0-.75,3.06h.71c0-.55-.56-4.17.56-4.17.79,0,1.59.64,2.38.68,2.54.24,3.38-2.35,2.54-4.37l-.43.43c2.42,1,4.84,1.87,7.27,2.83.43.15.63-.56.19-.72-2.42-1-4.84-1.87-7.27-2.82-.23-.08-.55.2-.43.44.51,1.27.47,2.82-1,3.37-.83.32-1.78-.19-2.58-.47-2.62-.92-2,3.45-1.94,4.76a.36.36,0,0,0,.29.42h0a.34.34,0,0,0,.4-.27h0a.24.24,0,0,0,0-.12,8.28,8.28,0,0,1,.44-2.37c-.12.23,2.66.79,2.9.79.47,0,1,.08,1.47.08s.67,1,.71,1.43a7.29,7.29,0,0,1-.2,2.67.37.37,0,0,0,.25.45h0a.37.37,0,0,0,.46-.25h0c.48-1.27,1.15-2.66,2.5-3.13.76-.28.6-.08,1,.35a9.44,9.44,0,0,0,2.71,1.74c.55.28.35.09.35.56a5.44,5.44,0,0,1-.43,1.82c-.12.36.39.64.59.36.84-1,3.38-3.18,1.59-4.4-1-.63-2.22-.52-2.66-1.86-.28-1,.48-2.2,1.07-2.87.36-.36-.16-.87-.47-.51"/><path class="cls-4" d="M85.77,103.72s3,3.33-.36,4.8c0,0-3,.48-1.11,2.63l1.47,1.73a6.16,6.16,0,0,1-.44-2.58s2.94-1.35,3.46-2.5c0,0,2.3-.48,3.65,3.49,0,0-.83-3.73.68-4.56,0,0,3.33.13,4.33-.87.79-.8,1,2.77,1,2.77.59-7.66-1.75-3.12-4.25-3.93s-1.27-3.8-1.27-3.8Z"/><path class="cls-5" d="M85.57,104a4.21,4.21,0,0,1,1.11,2.5c.08,1.52-1.59,1.59-2.54,2.14-2.11,1.17.55,3.5,1.43,4.53a.36.36,0,0,0,.49,0,.34.34,0,0,0,.1-.4,8,8,0,0,1-.35-1.27c-.16-.62-.32-.83.12-1.07a13.2,13.2,0,0,0,2.58-1.66c.59-.52.24-.75,1-.59,1.43.31,2.19,2,2.62,3.17a.39.39,0,0,0,.46.26.36.36,0,0,0,.26-.44h0a10.12,10.12,0,0,1-.2-2.39c0-.32.16-1.71.63-1.71h1.29a5.3,5.3,0,0,0,3-.83c.2-.17.56,2.11.6,2.37a.36.36,0,0,0,.36.36h0a.36.36,0,0,0,.36-.36h0c.07-1.26.71-5.51-1.83-4.8a5.07,5.07,0,0,1-2.54.55c-1.67-.3-1.67-2.18-1.16-3.41.12-.24-.2-.56-.43-.44-2.43,1-4.85,1.87-7.27,2.82-.44.16-.24.87.2.72,2.42-1,4.84-1.87,7.27-2.82l-.44-.44c-.8,1.94,0,4.45,2.38,4.37a15.66,15.66,0,0,0,2.5-.76c1.2-.27.72,3.67.68,4.17H99a5.91,5.91,0,0,0-.68-3,.61.61,0,0,0-.84-.15h-.07a5.16,5.16,0,0,1-2.78.79c-1.28.13-2-.08-2.51,1.39a6.9,6.9,0,0,0,.08,3.69c.24-.08.48-.11.72-.19a6,6,0,0,0-2.58-3.5c-.4-.2-1.2-.48-1.63-.24a2.75,2.75,0,0,0-.48.6,5.38,5.38,0,0,1-1.07.83,14.1,14.1,0,0,1-1.83,1c-.83.41-.08,2.43.16,3l.59-.34a10.09,10.09,0,0,1-2-2.59c-.28-.83,1.94-1.35,2.42-1.7,1.67-1.28.68-3.58-.44-4.85-.31-.36-.83.16-.51.52"/><path class="cls-5" d="M107.89,77.65c16.61-19,7.59-38,7.59-38a19.89,19.89,0,0,1-1.31,7.51c-.08-17.12-9.45-23.68-9.45-23.68,1.74,4.29,1.23,11.6,1.23,11.6-3.31-12.53-18.52-17.14-18.52-17.14s12.76,8.44,11,22.44c0,0-1.35,10.73-13.63,10.73H66.86c-12.29,0-13.63-10.73-13.63-10.73-1.79-14,11-22.41,11-22.41S49,22.55,45.64,35.14c0,0-.51-7.35,1.24-11.6,0,0-9.34,6.56-9.42,23.68a19.81,19.81,0,0,1-1.31-7.5s-9,19,7.59,38a25.93,25.93,0,0,1-6-4.89S45,87.24,61,93.24l-4.09,7.88,10.48,3.76L69,96.47s.2-.73.72-.64.43.87.43.87l-1.23,6.75,2.55.17.47-7.11s0-.56.72-.49a.48.48,0,0,1,.5.48h0a.38.38,0,0,1,0,.15l-.43,7.2h2.54l-.12-7.31s.08-.44.76-.49a.63.63,0,0,1,.75.48h0l-.09,7.32h2.54l-.41-7.21A.48.48,0,0,1,79,96h0a.38.38,0,0,1,.15,0,.6.6,0,0,1,.72.42h0l.47,7.11,2.55-.16-1.23-6.74s0-.88.47-1,.68.72.68.72l1.63,8.42L94.93,101l-4.16-7.81c15.89-6,23.12-20.42,23.12-20.42a25,25,0,0,1-6,4.89"/><path class="cls-4" d="M108.21,77.69c6.36-7.35,10.29-16.45,10.13-26.26a30.48,30.48,0,0,0-2.46-12.2c-.16-.35-.68-.15-.68.2a19.39,19.39,0,0,1-1.27,7.31l.68.2c-.08-6.43-1.39-12.91-4.81-18.43A19,19,0,0,0,105,23c-.24-.2-.63.12-.55.39,1.39,3.58,1.47,7.75,1.19,11.52a5.69,5.69,0,0,1,.71-.07C104,26.29,95.82,19.9,87.64,17.43a.37.37,0,0,0-.42.31.38.38,0,0,0,.15.36c6.5,4.33,11.11,12.33,10.87,20.15a13.42,13.42,0,0,1-2.3,7.07c-2.59,3.74-7,5.21-11.33,5.21H74.48c-3,0-6,.16-9,0a12.48,12.48,0,0,1-10.65-7,15.07,15.07,0,0,1-1-9.34c1-6.32,5.36-12.51,10.68-16.09.32-.24.12-.79-.27-.67C56,20,47.79,26.32,45.49,34.87a4.27,4.27,0,0,0,.71.07,27.54,27.54,0,0,1,1.19-11.51c.12-.27-.28-.59-.55-.39A19.14,19.14,0,0,0,42,28.6C38.57,34,37.26,40.55,37.22,47l.68-.2a19.42,19.42,0,0,1-1.26-7.35c0-.35-.52-.51-.68-.2a30.82,30.82,0,0,0-2.46,12.2c-.25,9.77,3.8,19,10.14,26.26.16-.2.28-.4.44-.6a23,23,0,0,1-6-4.84c-.28-.32-.76.07-.6.43a39.36,39.36,0,0,0,5.68,8A45,45,0,0,0,60.94,93.26c-.08-.2-.16-.36-.24-.56l-4.06,7.88a.37.37,0,0,0,.16.51h.08c3.49,1.27,7,2.5,10.48,3.77a.34.34,0,0,0,.43-.22h0c.52-2.74,1.07-5.68,1.63-8.42.08-.44.56-.36.48.09-.16.75-.32,1.87-.48,2.62-.24,1.39-.52,2.74-.75,4.13a.41.41,0,0,0,.33.47h0c.84,0,1.71.12,2.55.16a.37.37,0,0,0,.35-.36L72,99.64c0-.8.12-2.15.2-2.94,0-.28.12-.76.36-.72s.28.48.28.76c0-.12-.12,1.9-.2,3-.08,1.28-.2,2.59-.28,3.86a.36.36,0,0,0,.36.36h2.54a.36.36,0,0,0,.36-.36h0c0-2.42-.16-4.49-.16-6.91,0-.84.75-.84.75,0V100c0,1.23,0,2.43-.08,3.66a.36.36,0,0,0,.38.34h2.6c.2,0,.4-.16.36-.36-.16-2.39-.32-4.81-.44-7.19,0-.44.44-.49.44,0V97c0,.84.12,1.63.16,2.47.08,1.31.16,2.62.28,3.93,0,.2.16.4.36.36.83,0,1.66-.12,2.54-.16a.41.41,0,0,0,.36-.42h0v-.06c-.23-1.31-.47-2.59-.71-3.89l-.56-3c-.08-.4.16-.45.16-.45a.34.34,0,0,1,.32.32c.52,2.74,1.11,5.81,1.63,8.54a.33.33,0,0,0,.39.26h0c3.49-1.23,7-2.5,10.48-3.76a.42.42,0,0,0,.26-.53h0c-1.35-2.62-2.74-5.24-4.09-7.87l-.24.55a45.65,45.65,0,0,0,17.6-12.35,39.8,39.8,0,0,0,5.88-8.23.36.36,0,0,0-.1-.49h0a.37.37,0,0,0-.48.07,23.22,23.22,0,0,1-6,4.85c-.39.23,0,.87.36.63a23.43,23.43,0,0,0,6.12-5c-.2-.16-.4-.27-.6-.44A38.82,38.82,0,0,1,108.2,80,44.58,44.58,0,0,1,90.57,92.62a.43.43,0,0,0-.24.54h0c1.36,2.62,2.75,5.24,4.1,7.87.08-.19.16-.36.23-.56-3.49,1.27-7,2.5-10.48,3.77a3.62,3.62,0,0,1,.43.24c-.31-1.67-.63-3.3-1-5-.2-1-.4-1.79-.59-2.74a4.43,4.43,0,0,0-.38-1.38.77.77,0,0,0-1.07-.06.7.7,0,0,0-.26.39,3.61,3.61,0,0,0,0,1.39c.24,1.63.75,4.41,1.07,6.24l.36-.48c-.84,0-1.71.12-2.54.16l.35.36c-.12-1.67-.35-5.36-.51-7-.08-1-.76-1-1-1a.87.87,0,0,0-.79.94v.06c0,1.71.28,5.52.36,7.23l.35-.36H76.4l.36.36v-7c0-.68-.32-1.26-1-1.26s-1,.58-1,1.26v6.91l.36-.36H72.57l.36.36.35-7.23c0-1-.55-1.15-.79-1.15a.9.9,0,0,0-1,.77v0a.74.74,0,0,0,0,.21c-.16,1.75-.4,5.36-.52,7.11l.36-.36c-.84,0-1.67-.12-2.55-.16l.36.48c.32-1.79.48-2.74.8-4.49.08-.51.31-1.71.39-2.26.08-.76-.16-1.12-.67-1.23a1,1,0,0,0-1.14.84h0c-.36,1.75-1.32,6.59-1.63,8.34a3.62,3.62,0,0,0,.43-.24c-3.49-1.27-7-2.5-10.48-3.77.08.2.16.36.24.56l4.09-7.84c.12-.24,0-.44-.24-.56A44.11,44.11,0,0,1,43.57,80.23,37.84,37.84,0,0,1,38,72.38l-.56.45a25,25,0,0,0,6.12,5,.38.38,0,0,0,.44-.6c-6.28-7.31-10.13-16.29-9.9-26a28.89,28.89,0,0,1,2.36-11.52l-.68-.2a20.52,20.52,0,0,0,1.35,7.71c.16.36.68.16.68-.21.08-6.31,1.35-12.63,4.69-18a18.4,18.4,0,0,1,4.56-5.3c-.19-.12-.35-.28-.55-.39C45.13,26.94,45,31.19,45.29,35a.37.37,0,0,0,.37.36.34.34,0,0,0,.34-.28c2.27-8.3,10.25-14.5,18.28-17-.08-.24-.2-.44-.28-.67a25.93,25.93,0,0,0-11.2,18C52,42.34,55.5,49,62.57,50.81c3.06.8,6.43.48,9.57.48H83.7c3.7,0,7.35-.48,10.33-2.86a13.47,13.47,0,0,0,4.61-7.52c2.1-8.82-3.78-18.75-11-23.55-.08.23-.2.43-.27.67,8,2.46,16,8.66,18.27,17a.34.34,0,0,0,.41.27h0a.34.34,0,0,0,.27-.35c.28-3.81.16-8.1-1.23-11.7-.2.12-.36.27-.55.38a19.47,19.47,0,0,1,4.56,5.3c3.38,5.36,4.65,11.79,4.69,18.07,0,.31.52.56.68.2a18.94,18.94,0,0,0,1.38-7.77l-.68.2a30.28,30.28,0,0,1,2.44,11.53c.31,9.69-3.66,18.75-9.9,26-.31.4.2.92.52.56"/><path class="cls-4" d="M43.5,77.58a69.48,69.48,0,0,0,8.14,6.15,61.57,61.57,0,0,0,19.15,8.74.36.36,0,0,0,.45-.24h0a.38.38,0,0,0-.26-.46h0A62.53,62.53,0,0,1,52,83.1a68.68,68.68,0,0,1-8-6c-.36-.32-.88.2-.52.52"/><path class="cls-4" d="M45.41,34.79a28.36,28.36,0,0,0,1.07,10.64A33.3,33.3,0,0,0,60.14,64.26c.4.28.76-.36.36-.63A32.71,32.71,0,0,1,47.07,44.72a27.67,27.67,0,0,1-.91-10c0-.44-.67-.44-.75,0"/><path class="cls-4" d="M37.14,46.7A36.28,36.28,0,0,0,42,58.62,49.06,49.06,0,0,0,65,78.33c.44.19.8-.43.36-.63A48.65,48.65,0,0,1,42.57,58.26a34.79,34.79,0,0,1-4.73-11.72c0-.47-.76-.27-.68.16"/><path class="cls-4" d="M107.85,77.05a63.23,63.23,0,0,1-8,6,60.07,60.07,0,0,1-19,8.67.37.37,0,0,0-.26.45.38.38,0,0,0,.46.27h0A62.37,62.37,0,0,0,100.2,83.7a73.21,73.21,0,0,0,8.18-6.16c.36-.32-.2-.84-.52-.52"/><path class="cls-4" d="M105.64,34.86a27.9,27.9,0,0,1-.92,10A32.72,32.72,0,0,1,91.3,63.76c-.4.28,0,.92.36.64a33.6,33.6,0,0,0,13.69-18.85,29.23,29.23,0,0,0,1.07-10.65c-.08-.52-.78-.52-.78,0"/><path class="cls-4" d="M113.89,46.86a34,34,0,0,1-4.61,11.52A47.83,47.83,0,0,1,86.4,78c-.43.19,0,.83.36.63a49,49,0,0,0,22.88-19.46,36,36,0,0,0,4.93-12.11c.12-.48-.6-.68-.68-.2"/><polygon class="cls-6" points="64.91 17.55 69.8 15.85 69.8 19.3 64.91 17.55"/><polygon class="cls-6" points="75.99 6.42 77.66 11.31 74.26 11.31 75.99 6.42"/><polygon class="cls-6" points="75.99 28.64 74.29 23.75 77.74 23.75 75.99 28.64"/><polygon class="cls-7" points="68.85 13.41 71.43 10.63 72.43 12.22 70.4 14.29 68.85 13.41"/><polygon class="cls-7" points="71.63 24.59 68.85 22 70.4 21 72.51 23 71.63 24.59"/><polygon class="cls-6" points="87.01 17.66 82.12 19.38 82.12 15.93 87.01 17.66"/><polygon class="cls-7" points="83.07 21.77 80.49 24.59 79.49 23 81.52 20.89 83.07 21.77"/><polygon class="cls-7" points="80.29 10.63 83.07 13.21 81.52 14.21 79.41 12.22 80.29 10.63"/><path class="cls-8" d="M82.43,17.58a6.48,6.48,0,1,1-6.5-6.46h0a6.5,6.5,0,0,1,6.48,6.47"/><polygon class="cls-9" points="67.26 50.88 70.76 63.08 73.29 53.55 75.29 70.91 76.15 70.91 78.51 53.51 81.21 62.95 84.65 50.41 79.54 49.84 74.88 49.37 69.88 49.88 67.41 50.56 67.26 50.88"/><path class="cls-4" d="M86.57,51a4.2,4.2,0,0,1-2.34-3.09S83,41.31,81.57,39a8.62,8.62,0,0,0-7.92-4.15c-4.14,0-5.36,1.63-5.36,1.63a1.13,1.13,0,0,0-1.19,1c-4.65,1.19-4,4.72-4,4.72,2.9-2.9,8.11-1.51,8.11,3.18s-6.56,5.68-6.56,5.68l3.62.4,2.42,8.43,2.42-8.82h1l1.78,16.3,2.26-16.23H79L81.32,60l2.42-8.77h2c.39,0,.31-.16.75-.2"/><path class="cls-5" d="M72.57,37.25c0,.37-.72.67-1.59.67s-1.59-.3-1.59-.67.72-.68,1.59-.68,1.59.32,1.59.68"/><path class="cls-9" d="M48.47,111.81a2.42,2.42,0,0,1-.4.6.82.82,0,0,1-.48.24,1.89,1.89,0,0,1-.67,0,4.75,4.75,0,0,1-.8-.28,2.19,2.19,0,0,1-1-.83.89.89,0,0,1,0-.92,1.63,1.63,0,0,1,.45-.62,4.51,4.51,0,0,1,1-.62l.12.19c-.26.15-.51.3-.76.47a2.44,2.44,0,0,0-.32.4.6.6,0,0,0,.08.64,2.14,2.14,0,0,0,.8.63,2,2,0,0,0,1,.28c.32,0,.52-.08.6-.28l.12-.36v-.67l.63-.64a1.38,1.38,0,0,1,0,.64,1.59,1.59,0,0,1-.24.67Zm.15-2.69-.67.44-.52-.72.68-.44Z"/><path class="cls-9" d="M49.86,112.62l-.44-.2a.71.71,0,0,1-.4-.52,2.64,2.64,0,0,1,.28-1.11l.4-.8a1.31,1.31,0,0,0,.12-.47,1.16,1.16,0,0,0-.08-.32l.67-.56a1.32,1.32,0,0,1,0,.56,3.13,3.13,0,0,1-.24.71l-.28.56a4.09,4.09,0,0,0-.25.91c0,.17,0,.24.12.28l.43.2Z"/><path class="cls-9" d="M51.57,113.38l-1.92-.84.35-.81,1.63.72a1.34,1.34,0,0,0,0-.4,1.09,1.09,0,0,0-.12-.36l.56-.55a1.06,1.06,0,0,1,.08.63,3.61,3.61,0,0,1-.28.84Zm1.31-3.09-.59.44-.36-.44-.44.36-.43-.56.55-.39.36.39.48-.35Z"/><path class="cls-9" d="M55.46,114.91a2.26,2.26,0,0,1-.56-.28,1.38,1.38,0,0,1-.4-.32,1.28,1.28,0,0,1-.39,0,1.16,1.16,0,0,1-.44-.12l-.52-.19a.35.35,0,0,1-.28-.24,1.31,1.31,0,0,1-.07-.44,1,1,0,0,1-1,.12l-.44-.16.32-.79.44.16a.93.93,0,0,0,1.19-.55l.2.12c0,.08-.08.12-.08.2l-.12.27a.34.34,0,0,0,0,.28.39.39,0,0,0,.2.2l.4.16a1.2,1.2,0,0,0,.59.12.52.52,0,0,0,.36-.36.13.13,0,0,1,.08-.12h.32v.28a1.87,1.87,0,0,1-.2.4c.08.08.16.12.24.2a.72.72,0,0,0,.27.15.45.45,0,0,0,0-.28v-.24a.13.13,0,0,1,.08-.12l.11-.08.4-.24v.4a.72.72,0,0,1-.12.4Z"/><path class="cls-9" d="M57.64,115.62l-1.47-.47a.38.38,0,0,1-.32-.43.33.33,0,0,1,0-.13.7.7,0,0,1,.12-.28,1.4,1.4,0,0,1,.16-.26h.12a.2.2,0,0,0,.08.19l.2.12,1.11.36a1.51,1.51,0,0,0,0-.79,1.46,1.46,0,0,0-.28-.52l.56-.83a1.82,1.82,0,0,1,.36,1,3,3,0,0,1-.2,1.15Z"/><path class="cls-9" d="M60.5,116.55a1,1,0,0,1-.36.44,2.38,2.38,0,0,1-.67.35,1.53,1.53,0,0,1-.64.08,1.33,1.33,0,0,1-.55-.32c-.16-.15-.4-.39-.76-.79l.2-.16c.13.14.26.27.4.4a1.89,1.89,0,0,0,.36.16,1.24,1.24,0,0,0,.47,0c.26-.07.52-.15.76-.24.43-.2.67-.36.75-.52a.43.43,0,0,0,0-.35,1,1,0,0,0-.16-.44l.44-.76a1.85,1.85,0,0,1,.2.6,1.18,1.18,0,0,1-.08.67Z"/><path class="cls-9" d="M63.57,117a1.47,1.47,0,0,1-.75.92,1.17,1.17,0,0,1-1.63,0,7.79,7.79,0,0,1-.84-.88l.2-.16a2.38,2.38,0,0,0,.52.43,1.16,1.16,0,0,0,.4.16,1.52,1.52,0,0,0,.67,0,2.54,2.54,0,0,0,.91-.43h-.23a.8.8,0,0,1-.48-.32,1.09,1.09,0,0,1-.08-.59,2.06,2.06,0,0,1,.44-.84.72.72,0,0,1,.67-.32c.16,0,.28.2.36.45a1.31,1.31,0,0,1,0,.83Zm-.24-.72c0-.36-.08-.51-.24-.6a.61.61,0,0,0-.19,0,.66.66,0,0,0-.12.17c0,.08,0,.16.08.19a.79.79,0,0,0,.31.17Z"/><path class="cls-9" d="M65.94,117.73l-2.7-.56.16-.83,2.15.45-.2-.32a.92.92,0,0,0-.24-.28c-.12-.13-.2-.24-.32-.36l-.12.08a2.14,2.14,0,0,0-.28-.39.61.61,0,0,1-.07-.44,2.28,2.28,0,0,1,.11-.45.8.8,0,0,1,.36-.27c.16,0,.28-.13.48-.17a2.65,2.65,0,0,1,.48-.07l.59-.08-.16.71a1.31,1.31,0,0,0-.28,0,1.15,1.15,0,0,0-.55.08c-.16.08-.32.08-.32.12a.63.63,0,0,0,.2.28c.16.24.32.43.44.63a6.4,6.4,0,0,1,.43.92Z"/><path class="cls-9" d="M71.57,118.52H71a.51.51,0,0,0,.16.09.18.18,0,0,1,.16.19.72.72,0,0,1-.12.4,2.22,2.22,0,0,1-.2.41,1,1,0,0,1-.44.27,3.31,3.31,0,0,1-.87.24,3.35,3.35,0,0,1-1,0,1.44,1.44,0,0,1-.79-.31.89.89,0,0,1-.2-.72,2.4,2.4,0,0,1,.24-.83,6.21,6.21,0,0,1,.75-1.09l.16.17a3.89,3.89,0,0,0-.51.76,1.59,1.59,0,0,0-.2.55.53.53,0,0,0,.16.48,1,1,0,0,0,.51.24,3.54,3.54,0,0,0,.92,0,4.26,4.26,0,0,0,.79-.16c.24-.08.36-.16.36-.2s0,0-.2-.08-.24,0-.32,0a3.85,3.85,0,0,1-.47-.08c-.08,0-.08-.08-.08-.12a.7.7,0,0,1,.12-.35.77.77,0,0,1,.19-.28,1.48,1.48,0,0,1,.6-.36.9.9,0,0,1,.64-.12h.35Z"/><path class="cls-9" d="M74.41,118.69a3.9,3.9,0,0,1-1.55-.52.89.89,0,0,1-.52.32.68.68,0,0,1-.4,0h-.67v-.83h.67a1.93,1.93,0,0,0,.48,0,.67.67,0,0,0,.36-.28,2.09,2.09,0,0,1,.55-.63.72.72,0,0,1,.48-.2c.12,0,.24.16.4.52a1.75,1.75,0,0,1,.19,1Zm-.56-1a.55.55,0,0,0-.12-.24c-.12-.12-.2-.2-.28-.2s-.16.08-.24.28a1.39,1.39,0,0,1,.28.12,1.75,1.75,0,0,0,.32.12v-.08Z"/><path class="cls-9" d="M76.27,118.72l-2.1-.08v-.83H76a1.24,1.24,0,0,0-.11-.36l-.24-.28.27-.75a1.37,1.37,0,0,1,.32.56,3.66,3.66,0,0,1,.08.87Zm-.08.56-.39.64-.48-.28-.28.47-.63-.35.35-.6.48.24.32-.52Zm.16-3.89-.47.71h-.31l-.44-.71h.44l.2.39.23-.35Z"/><path class="cls-9" d="M79.21,118.8a1,1,0,0,1-.24.52,2.92,2.92,0,0,1-.55.56,1.31,1.31,0,0,1-.6.27,1.16,1.16,0,0,1-.63-.16,9.4,9.4,0,0,1-1-.51l.16-.2a2.16,2.16,0,0,0,.48.24,1.1,1.1,0,0,0,.4.08.94.94,0,0,0,.47-.12,2.75,2.75,0,0,0,.64-.48c.36-.32.55-.55.55-.71a.6.6,0,0,0-.12-.32,1.35,1.35,0,0,0-.31-.4l.2-.83a1.6,1.6,0,0,1,.35.51,1.41,1.41,0,0,1,.12.64Z"/><path class="cls-9" d="M82.07,118.56h-.43a.49.49,0,0,1-.24,0,1,1,0,0,1-.36-.3,2.45,2.45,0,0,1-.28-.88c-.16.2-.24.32-.32.4a.47.47,0,0,1-.31.16h-.56a.86.86,0,0,0-.32,0,.11.11,0,0,1-.08-.08c.06-.2.13-.38.2-.56a1.69,1.69,0,0,1,.32-.55,1.61,1.61,0,0,0,.28-.24,2.71,2.71,0,0,0,.35-.24l.16-.12V116a1.61,1.61,0,0,1,0-.31,2,2,0,0,1,.2-.48l.44,1.94a1.65,1.65,0,0,0,.24.6c0,.08.12.08.24.08H82Zm-1.43-1.69-.08-.36c-.08,0-.12.08-.16.08a1.35,1.35,0,0,0-.27.2l-.12.12s-.08.08-.08.12,0,0,.12.07h.23a.43.43,0,0,0,.16,0Z"/><path class="cls-9" d="M84.69,117.62a2.17,2.17,0,0,1,0,.51c0,.24-.11.35-.23.35a1.33,1.33,0,0,1-.48-.07,4.87,4.87,0,0,1-.84-.28,1.42,1.42,0,0,1-.51.32,1,1,0,0,1-.52.11h-.32l-.08-.83h.52c.08,0,.12,0,.16-.08v-.12a1.89,1.89,0,0,1,0-.67,1,1,0,0,1,.32-.52l-.16-.08v-.4a4,4,0,0,1,.09-.48,3.71,3.71,0,0,1,1,.71,6.94,6.94,0,0,1,.72.81A1.29,1.29,0,0,1,84.69,117.62ZM83.3,117a.3.3,0,0,0-.08-.24.18.18,0,0,0-.15-.08.22.22,0,0,0-.24.12c0,.08-.08.12-.08.2s.12.15.32.23a.11.11,0,0,0,.11-.08A.2.2,0,0,0,83.3,117Zm1,.47c0-.08-.08-.16-.16-.28a1.35,1.35,0,0,0-.4-.31v.23a.7.7,0,0,1-.12.28,2.4,2.4,0,0,0,.64.16h0Z"/><path class="cls-9" d="M90.85,117.22h-.28a.67.67,0,0,0-.2,0,.07.07,0,0,0-.07.07h.15a.16.16,0,0,1,.19.13h0a1.09,1.09,0,0,1,0,.44,2,2,0,0,1-.08.48,2.06,2.06,0,0,1-.35.43,4.44,4.44,0,0,1-.76.52,5.66,5.66,0,0,1-1,.36,1.34,1.34,0,0,1-.88-.08.85.85,0,0,1-.39-.64,2.54,2.54,0,0,1,0-.87,7.28,7.28,0,0,1,.45-1.12l.2.07a5.62,5.62,0,0,0-.28.88,1.47,1.47,0,0,0,0,.59.49.49,0,0,0,.28.4.61.61,0,0,0,.56,0,2.47,2.47,0,0,0,.87-.32,5,5,0,0,0,.72-.39c.2-.16.28-.24.28-.32s-.08,0-.2,0a.41.41,0,0,0-.32.08,2.67,2.67,0,0,0-.48.08c-.08,0-.12,0-.12-.08a.55.55,0,0,1,0-.36.72.72,0,0,1,.08-.32,4.23,4.23,0,0,1,.44-.51,1.85,1.85,0,0,1,.56-.32l.35-.08Z"/><path class="cls-9" d="M91.76,113.48l-.19.71-.52-.11-.16.55-.67-.16.19-.67.56.12.16-.55Zm.88,3.26-2.07.52-.2-.84,1.75-.44a1.07,1.07,0,0,0-.2-.32l-.27-.19.08-.8a1.44,1.44,0,0,1,.47.48,2.27,2.27,0,0,1,.28.83Z"/><path class="cls-9" d="M95.38,116l-.44.13a.33.33,0,0,1-.24,0,.7.7,0,0,1-.39-.24,4.27,4.27,0,0,1-.48-.79,2.16,2.16,0,0,0-.24.48.88.88,0,0,1-.24.23h-.59a1.71,1.71,0,0,0-.32,0h-.08a3.81,3.81,0,0,1,.08-.59c.08-.32.12-.56.16-.64a1.08,1.08,0,0,1,.24-.28,4.12,4.12,0,0,0,.28-.31l.15-.16v-.16a1.71,1.71,0,0,1,0-.32,2.65,2.65,0,0,1,.07-.48l.84,1.79a1.58,1.58,0,0,0,.36.56c.08,0,.16.08.23,0l.44-.12Zm-1.74-1.35-.16-.36a.65.65,0,0,0-.16.13.84.84,0,0,0-.23.23.38.38,0,0,0-.08.17.24.24,0,0,0,0,.12h.12a.88.88,0,0,0,.23,0,.13.13,0,0,0,.12-.08Z"/><path class="cls-9" d="M98.08,115.08a5.79,5.79,0,0,1-.83.16h-.8a.88.88,0,0,1-.36.47,1.11,1.11,0,0,1-.35.16l-.64.2-.28-.79.64-.2a2.48,2.48,0,0,0,.44-.2.61.61,0,0,0,.19-.4,1.88,1.88,0,0,1,.28-.79.74.74,0,0,1,.36-.36c.12,0,.28.08.56.32a1.83,1.83,0,0,1,.55.79Zm-.91-.72a.64.64,0,0,0-.2-.2c-.12-.07-.24-.12-.32-.08s-.12.15-.12.35h.6v-.05Z"/><path class="cls-9" d="M100.86,113.76a1.4,1.4,0,0,1-.08,1.15,1.42,1.42,0,0,1-.71.83,1.39,1.39,0,0,1-.64.09l-1.19-.24.08-.23.67.08a3.11,3.11,0,0,0,.44-.08A1.21,1.21,0,0,0,100,115a2.47,2.47,0,0,0,.51-.87l-.19.11a.61.61,0,0,1-.56,0,.77.77,0,0,1-.4-.43,1.81,1.81,0,0,1-.12-.92.6.6,0,0,1,.36-.62c.2-.08.36,0,.56.16a1.37,1.37,0,0,1,.47.71Zm-.59-.44c-.2-.28-.36-.4-.56-.32s-.12.08-.12.12a.18.18,0,0,0,0,.2.16.16,0,0,0,.19.12h0a1.09,1.09,0,0,0,.36,0Z"/><path class="cls-9" d="M103.21,113l-2.51,1.08-.31-.81,2-.87a2.17,2.17,0,0,0-.36-.12.48.48,0,0,1-.31-.08l-.48-.12v.16l-.48-.16a.62.62,0,0,1-.32-.32,1.36,1.36,0,0,1-.11-.44,1,1,0,0,1,.11-.39c.08-.12.2-.24.28-.36l.36-.36.44-.39.28.67a1.16,1.16,0,0,1-.24.2c-.16.16-.32.28-.4.36a1.05,1.05,0,0,0-.2.27,1,1,0,0,0,.32.12,6.15,6.15,0,0,1,.71.28,4.85,4.85,0,0,1,.88.52Z"/><path class="cls-9" d="M106.46,111.45,103,113.12l-.33-.74,2.18-1c-.3-.08-.61-.14-.91-.19a1.52,1.52,0,0,0-.59.12s-.12,0-.16.07-.12.09-.16.13a2.16,2.16,0,0,1,.12-.71.64.64,0,0,1,.39-.4.85.85,0,0,1,.44-.09,2.62,2.62,0,0,1,.56.09,5.94,5.94,0,0,1,.75.23l.52.17a3.08,3.08,0,0,0,.43,0Z"/><path class="cls-9" d="M56,122.58a3.07,3.07,0,0,1-.31.63.66.66,0,0,1-.44.28,1.56,1.56,0,0,1-.68,0,2.42,2.42,0,0,1-.79-.2,2.23,2.23,0,0,1-1.07-.71,1,1,0,0,1-.12-.92A2.8,2.8,0,0,1,53,121a7.32,7.32,0,0,1,1-.76l.16.2c-.23.18-.46.36-.68.56a2.44,2.44,0,0,0-.28.43.57.57,0,0,0,.16.64,2,2,0,0,0,.88.56,1.92,1.92,0,0,0,1,.15.59.59,0,0,0,.59-.35,1.1,1.1,0,0,0,.08-.4,3.08,3.08,0,0,0-.08-.68l.6-.67a4.66,4.66,0,0,0,.08.64,1.44,1.44,0,0,1-.16.67Zm-.16-2.7-.63.52-.6-.63.64-.52Z"/><path class="cls-9" d="M57.32,123.17l-.43-.16a.6.6,0,0,1-.44-.47,2.7,2.7,0,0,1,.19-1.16l.28-.83a1.13,1.13,0,0,0,.08-.48.47.47,0,0,0-.12-.27l.59-.64a1.38,1.38,0,0,1,.12.56,1.57,1.57,0,0,1-.16.71l-.2.6a2.88,2.88,0,0,0-.19.87c0,.16,0,.24.15.28l.45.2Z"/><path class="cls-9" d="M59.11,123.73l-2-.64.23-.79,1.71.51a.86.86,0,0,0,0-.39c0-.08-.08-.16-.16-.36l.48-.64a1.44,1.44,0,0,1,.16.64,2.66,2.66,0,0,1-.16.84Zm.91-3.22-.55.52-.4-.4-.4.4-.51-.48.51-.48.4.36.44-.4Z"/><path class="cls-9" d="M63.12,124.8a2.14,2.14,0,0,1-.59-.19,1.83,1.83,0,0,1-.44-.28,2.57,2.57,0,0,1-.4.08l-.47-.08-.52-.16a.63.63,0,0,1-.32-.19.72.72,0,0,1-.12-.4.89.89,0,0,1-.51.23.66.66,0,0,1-.48,0l-.48-.12.2-.83.48.12a.8.8,0,0,0,1.05-.42.83.83,0,0,0,.06-.21l.2.08a.22.22,0,0,1-.08.2c-.08.07,0,.16-.08.27a.32.32,0,0,0,0,.27.3.3,0,0,0,.24.17l.4.12a1.18,1.18,0,0,0,.59,0,.52.52,0,0,0,.32-.4.13.13,0,0,1,.08-.12c.08,0,.08,0,.16-.08h.16a.19.19,0,0,1,0,.15.13.13,0,0,1,0,.12,1.79,1.79,0,0,1-.16.44c.08,0,.16.12.24.16l.31.16v-.28a1,1,0,0,1,0-.24v-.12l.08-.08.36-.28a1.34,1.34,0,0,1,0,.4,1.77,1.77,0,0,1-.08.4Z"/><path class="cls-9" d="M65.31,125.24l-1.51-.32a.49.49,0,0,1-.32-.16.36.36,0,0,1-.08-.36.92.92,0,0,1,.08-.27c0-.12.08-.19.12-.32h.12a.18.18,0,0,0,.08.2.32.32,0,0,0,.2.08l1.15.24a2.11,2.11,0,0,0-.12-.79,1.72,1.72,0,0,0-.36-.49l.44-.91a1.66,1.66,0,0,1,.44.91,3.18,3.18,0,0,1-.08,1.19Z"/><path class="cls-9" d="M68.05,125.8a1.31,1.31,0,0,1-.32.48,2.74,2.74,0,0,1-.63.44,1.17,1.17,0,0,1-.64.16,1.5,1.5,0,0,1-.6-.28c-.19-.12-.43-.36-.83-.68l.16-.16a2.75,2.75,0,0,0,.44.32.69.69,0,0,0,.39.12,1.29,1.29,0,0,0,.48,0,3,3,0,0,0,.72-.36c.43-.23.63-.43.67-.59a1.09,1.09,0,0,0,0-.36,1,1,0,0,0-.25-.51l.32-.79a2,2,0,0,1,.28.56,1.89,1.89,0,0,1,0,.67Z"/><path class="cls-9" d="M71,125.87a1.44,1.44,0,0,1-.64,1,1.28,1.28,0,0,1-1,.39,1.91,1.91,0,0,1-.6-.23,8.55,8.55,0,0,1-1-.8l.16-.16a1.46,1.46,0,0,0,.56.36l.43.12a1.21,1.21,0,0,0,.68-.08,2.76,2.76,0,0,0,.87-.56h-.24a.78.78,0,0,1-.51-.27.69.69,0,0,1-.12-.56,2,2,0,0,1,.36-.87c.19-.28.43-.44.63-.4a.51.51,0,0,1,.4.4,1.8,1.8,0,0,1,.08.83Zm-.32-.67c0-.36-.12-.51-.32-.55s-.12,0-.16,0a.21.21,0,0,0-.08.16.24.24,0,0,0,.12.2c.08.08.2.08.36.12Z"/><path class="cls-9" d="M73.45,126.27,70.71,126l.08-.84,2.19.17a1.61,1.61,0,0,0-.24-.28l-.24-.24c-.12-.12-.24-.2-.36-.32l-.12.12c-.2-.2-.28-.32-.32-.36a.52.52,0,0,1-.12-.43,1.29,1.29,0,0,1,.06-.48c0-.12.16-.19.32-.32a3.43,3.43,0,0,1,.44-.19l.48-.15c.2-.07.39-.12.59-.17l-.08.75h-.28a1.75,1.75,0,0,0-.55.12.6.6,0,0,0-.28.13l.24.28a5.57,5.57,0,0,1,.51.58,3.18,3.18,0,0,1,.52.84Z"/><path class="cls-9" d="M77,126.38h-.44a5.2,5.2,0,0,0-1.11.09c-.32,0-.48.12-.48.19a3.58,3.58,0,0,1,.2.71,1.55,1.55,0,0,1,.08.64v.36a.74.74,0,0,1-.16.27,3.61,3.61,0,0,0-.16-.87,3.22,3.22,0,0,0-.2-.67.74.74,0,0,1-.08-.44,1.55,1.55,0,0,1,.08-.36c0-.11.1-.21.16-.32a.64.64,0,0,1,.4-.24c.2,0,.44-.07.83-.11-.15-.24-.31-.36-.47-.36h-.16l-.28.28-.16-.08a2,2,0,0,1,.4-.72.76.76,0,0,1,.48-.24.9.9,0,0,1,.51.24,4.23,4.23,0,0,1,.64.76Z"/><path class="cls-9" d="M78.77,126.38h-2.1v-.83h1.79a.69.69,0,0,0-.16-.36l-.24-.28.28-.75a1.58,1.58,0,0,1,.36.56,3.64,3.64,0,0,1,.11.87Zm0,.52-.36.63-.48-.24-.28.52-.63-.32.35-.59.52.23.28-.51Z"/><path class="cls-9" d="M80.36,126.31l-1.82.07v-.83H80l-.52-2.17-.24-.12a2.16,2.16,0,0,1,0-.36,6.07,6.07,0,0,1,.24-.59l.16.09v.12c0,.08,0,.12.16.2l.39.15a1.09,1.09,0,0,1-.07.4l-.12.36h-.12l.43,1.91Z"/><path class="cls-9" d="M82.47,126.15l-2.34.16-.08-.83,2-.16v-.4a1.75,1.75,0,0,0-.12-.32,1.18,1.18,0,0,1-.27.32.56.56,0,0,1-.4.12,1,1,0,0,1-.48-.12.56.56,0,0,1-.2-.4,2,2,0,0,1,.2-.87c.16-.4.32-.6.52-.6a1,1,0,0,1,.71.52,2.29,2.29,0,0,1,.4,1.19ZM81.83,122l-.31.68-.52-.19-.24.51-.63-.27.31-.64.52.2.24-.52Zm-.19,2.11c-.08-.08-.12-.16-.16-.19a.22.22,0,0,0-.16,0,.21.21,0,0,0-.16.08c0,.08-.08.12-.08.2s0,.08.08.11.08,0,.16,0h.16a.69.69,0,0,1,.16-.18Z"/><path class="cls-9" d="M83.46,125.16a1.51,1.51,0,0,1,0,.52,3.55,3.55,0,0,1-.2.63h-.19a1.52,1.52,0,0,0,0-.67,3.6,3.6,0,0,0-.08-.56,3.72,3.72,0,0,0-.16-.72,6,6,0,0,0-.24-.83,2.25,2.25,0,0,1-.08-.24.9.9,0,0,1,.08-.36,6.07,6.07,0,0,1,.24-.59l.31,1.07c.12.4.2.76.28,1.07A5.17,5.17,0,0,0,83.46,125.16Zm.2,2a.18.18,0,0,1-.08.15.27.27,0,0,1-.12.09l-.71.27a.9.9,0,0,1,.28-.27c-.08,0-.12-.09-.16-.09v-.15A.13.13,0,0,1,83,127c.12-.2.27-.32.39-.32a.24.24,0,0,1,.12,0V127a.49.49,0,0,0-.24,0,.11.11,0,0,0-.11,0H83c-.08,0,.08.08.15.11l.24.08a.58.58,0,0,1,.22-.08Z"/><path class="cls-9" d="M86.2,121.27l-.27.63-.52-.16-.2.52-.64-.26.27-.6.52.16.24-.51Zm1.44,4.21-.43.08H87a.8.8,0,0,1-.4-.27,2.13,2.13,0,0,1-.36-.88c-.12.2-.23.32-.31.44a.45.45,0,0,1-.28.2H84.7a.11.11,0,0,1-.08-.08,3.58,3.58,0,0,1,.16-.56c.12-.31.2-.51.24-.59a.93.93,0,0,1,.28-.28c.08-.08.2-.16.32-.28l.16-.12v-.47a1.6,1.6,0,0,1,.16-.48l.59,1.87a2.46,2.46,0,0,0,.28.59.31.31,0,0,0,.24.08l.44-.08Zm-1.55-1.55-.11-.36a.61.61,0,0,0-.16.12,2.83,2.83,0,0,1-.28.2l-.12.12a.24.24,0,0,0,0,.12h.36a.25.25,0,0,0,.16-.08l.1-.11Z"/><path class="cls-9" d="M90.41,124.92a3.84,3.84,0,0,1-.83,0,2.14,2.14,0,0,1-.79-.12.78.78,0,0,1-.4.44,1.4,1.4,0,0,1-.36.13l-.67.12-.16-.84.67-.12a1.6,1.6,0,0,0,.48-.16.39.39,0,0,0,.22-.37,2.92,2.92,0,0,1,.35-.76.79.79,0,0,1,.4-.32c.12,0,.28.12.52.4a1.93,1.93,0,0,1,.44.88Zm-.83-.79a.61.61,0,0,0-.2-.19c-.12-.08-.24-.17-.32-.13a.33.33,0,0,0-.16.32h.28a1.71,1.71,0,0,0,.32,0h.08Z"/><path class="cls-9" d="M93.2,124a1.66,1.66,0,0,1-.24,1.15,1.31,1.31,0,0,1-.84.75,1.67,1.67,0,0,1-.63,0,8.32,8.32,0,0,1-1.16-.39l.08-.19c.28.08.48.12.64.16h.44a1.48,1.48,0,0,0,.59-.32,4.94,4.94,0,0,0,.6-.84.62.62,0,0,1-.24.08.73.73,0,0,1-.56-.08.89.89,0,0,1-.31-.47,2.11,2.11,0,0,1,0-1c.08-.35.23-.55.43-.59a.51.51,0,0,1,.52.24,1.76,1.76,0,0,1,.4.75Zm-.52-.52c-.16-.32-.32-.44-.48-.4s-.12,0-.16.13a.43.43,0,0,0,0,.16c0,.08.08.12.16.16a.55.55,0,0,0,.36,0Z"/><path class="cls-9" d="M95.64,123.54l-2.62.75-.24-.84,2.1-.64a1.77,1.77,0,0,0-.31-.15l-.32-.12c-.16,0-.28-.12-.44-.16l-.08.12a1.88,1.88,0,0,1-.44-.24.52.52,0,0,1-.27-.36,3.11,3.11,0,0,0-.08-.44.64.64,0,0,1,.2-.39,4,4,0,0,1,.35-.36l.4-.32a2.41,2.41,0,0,0,.48-.36l.2.72-.24.16-.48.32c-.12.08-.24.19-.24.24l.32.16a3.68,3.68,0,0,1,.64.37,4.22,4.22,0,0,1,.79.6Z"/><path class="cls-9" d="M99,122.38l-3.65,1.27-.28-.8,2.27-.79a3.63,3.63,0,0,0-.92-.28,1.67,1.67,0,0,0-.63,0,.35.35,0,0,0-.16.08.24.24,0,0,0-.2.12,1.6,1.6,0,0,1,.18-.6,1.15,1.15,0,0,1,.43-.36,1.09,1.09,0,0,1,.44,0,1.52,1.52,0,0,1,.56.17c.16.08.4.16.71.3a2,2,0,0,0,.48.2,1.09,1.09,0,0,0,.44,0Z"/><path class="cls-10" d="M119.14,113.84H119l-.12-.12h0v-.08h0v.08h.16Z"/><path class="cls-10" d="M119.25,113.76h0l-.11-.12h0l.08.12Z"/><path class="cls-10" d="M119.25,113.52h0v.17h0v-.13h.11Z"/><path class="cls-10" d="M119.45,113.44h0v.08h-.16v-.14h.08Z"/><path class="cls-10" d="M119.49,113.33h0l-.08-.09h0Z"/><path class="cls-5" d="M20.1,115l-.32.45-2.34-1.71a2.81,2.81,0,0,1,0,.58,2.06,2.06,0,0,1-.12.6l-.36-.24a2,2,0,0,0,.08-.87,1.6,1.6,0,0,0-.12-.68l.2-.28Z"/><path class="cls-5" d="M20.42,113l.28-.43a.9.9,0,0,0,.51.08.94.94,0,0,0,.56-.72,1.41,1.41,0,0,0,0-.41.8.8,0,0,0-.24-.38,1.56,1.56,0,0,0-.4-.41h-.07a1.32,1.32,0,0,1,0,.56,1.42,1.42,0,0,1-1,1.11,1,1,0,0,1-.91-.2,1.22,1.22,0,0,1-.52-.83,1.37,1.37,0,0,1,.28-1,1.25,1.25,0,0,1,.6-.51,1.15,1.15,0,0,1,.75-.13,2,2,0,0,1,.95.47,2.94,2.94,0,0,1,.8.81,1.16,1.16,0,0,1,.2.79,1.43,1.43,0,0,1-.28.8,1.29,1.29,0,0,1-.68.51A.83.83,0,0,1,20.42,113Zm-.08-2.7a.74.74,0,0,0-.64-.16.75.75,0,0,0-.51.36,1,1,0,0,0-.16.64,1,1,0,0,0,.36.58.64.64,0,0,0,.59.12.75.75,0,0,0,.52-.36.86.86,0,0,0,.16-.62.66.66,0,0,0-.32-.59Z"/><path class="cls-5" d="M22.57,110l.28-.43a.85.85,0,0,0,.52.08.94.94,0,0,0,.56-.72,1.34,1.34,0,0,0,0-.4,1,1,0,0,0-.24-.39,2.16,2.16,0,0,0-.4-.4h-.08a1.06,1.06,0,0,1,0,.56,1.36,1.36,0,0,1-.24.55,1.3,1.3,0,0,1-.79.56,1.05,1.05,0,0,1-.92-.2,1.29,1.29,0,0,1-.51-.83,1.59,1.59,0,0,1,.87-1.51,1.25,1.25,0,0,1,.76-.12,2.43,2.43,0,0,1,1,.47,2.74,2.74,0,0,1,.79.8,1.16,1.16,0,0,1,.2.79,1.43,1.43,0,0,1-.28.8,1.16,1.16,0,0,1-.67.52A1.11,1.11,0,0,1,22.57,110Zm-.07-2.74a.78.78,0,0,0-1.09.11h0a.27.27,0,0,0-.07.08,1,1,0,0,0-.16.64.92.92,0,0,0,.36.59.65.65,0,0,0,.6.12.71.71,0,0,0,.51-.36.88.88,0,0,0,.16-.63.78.78,0,0,0-.36-.58Z"/><path class="cls-5" d="M26.5,105l.35.24-1.62,2.3-.24-.23a3.73,3.73,0,0,1-.2-.56,5.12,5.12,0,0,1-.08-.87,7.37,7.37,0,0,0-.07-1.24c-.08-.24-.16-.44-.32-.51a.56.56,0,0,0-.47-.09.76.76,0,0,0-.48.36,1,1,0,0,0-.2.6.82.82,0,0,0,.32.52l-.36.4a1,1,0,0,1-.4-.79,1.85,1.85,0,0,1,.32-1,1.61,1.61,0,0,1,.8-.63.89.89,0,0,1,.79.12.71.71,0,0,1,.28.36,1.52,1.52,0,0,1,.16.55,4.77,4.77,0,0,0,.08,1,4.82,4.82,0,0,0,0,.76.72.72,0,0,0,.08.32Z"/><path class="cls-5" d="M125.57,105.86a2,2,0,0,1-.59.31l-.64.28-.08-.12a3.26,3.26,0,0,1,.4-.24,2.91,2.91,0,0,0,1-.91,3.76,3.76,0,0,0,.48-.88,2.72,2.72,0,0,0,.2-.63l.79-.08a2.83,2.83,0,0,1-.24.71,3.17,3.17,0,0,1-.43.76A3.24,3.24,0,0,1,125.57,105.86Z"/><path class="cls-5" d="M127.28,109.83l-.71.17a1,1,0,0,1,.28-.79,7.46,7.46,0,0,1,1.11-.83,1.72,1.72,0,0,1-.27-.27c0-.08-.12-.12-.16-.2a1.26,1.26,0,0,1-.24-.64.43.43,0,0,1,.24-.43,2.76,2.76,0,0,1,.47-.2,1,1,0,0,1,.72,0,.94.94,0,0,1,.63.43.56.56,0,0,1,0,.56,1.93,1.93,0,0,1-.47.52c-.16.12-.36.27-.68.47a2.85,2.85,0,0,0-.75.76A.83.83,0,0,0,127.28,109.83Zm1.15-1.79a1,1,0,0,0,.32-.32.51.51,0,0,0,0-.48.67.67,0,0,0-.36-.28.45.45,0,0,0-.36,0,.22.22,0,0,0-.08.27,1.35,1.35,0,0,0,.2.44c0,.08.1.16.16.24s.08.09.12.09Z"/><path class="cls-5" d="M129.23,112.88l-.72.2a1,1,0,0,1,.28-.79,9,9,0,0,1,1.11-.84,3.45,3.45,0,0,1-.28-.26c0-.08-.12-.13-.16-.2a1.16,1.16,0,0,1-.23-.64.45.45,0,0,1,.23-.44,3.19,3.19,0,0,1,.48-.19,1,1,0,0,1,.72,0,.94.94,0,0,1,.63.43.54.54,0,0,1,0,.55,1.7,1.7,0,0,1-.48.52c-.15.11-.35.27-.67.47a5.46,5.46,0,0,0-.76.76A.86.86,0,0,0,129.23,112.88Zm1.15-1.77a1.39,1.39,0,0,0,.32-.32.6.6,0,0,0,0-.49.67.67,0,0,0-.36-.28.45.45,0,0,0-.36,0,.23.23,0,0,0-.08.28,1.35,1.35,0,0,0,.2.44c.05.08.1.16.16.24A.2.2,0,0,1,130.38,111.11Z"/><path class="cls-5" d="M133.28,114.31a.85.85,0,0,1-.6.17.79.79,0,0,1-.52-.39.44.44,0,0,0-.11-.24,1.58,1.58,0,0,1-.24.39,2.51,2.51,0,0,1-.44.48,7,7,0,0,1-.75.56,1.79,1.79,0,0,0-.28.2l-.2.12-.08-.08c.48-.56.79-.92.91-1.08a4.24,4.24,0,0,0,.56-.88,6.81,6.81,0,0,0,.4-1.15l.67-.16c-.08.24-.12.47-.16.63a1.19,1.19,0,0,0,.2.8c.16.24.32.36.52.36a.78.78,0,0,0,.47-.16l.08.12a.4.4,0,0,1-.19.15A.78.78,0,0,1,133.28,114.31Z"/><path class="cls-11" d="M361.89,103.54c-.1.5-.2,1.1-.3,1.6a.6.6,0,0,1-.1.4c-.1.6-.2,1.2-.3,1.9s-.2,1.2-.3,1.9v.2c-.1.4-.1.8-.2,1.3v.4a8,8,0,0,1-7.6,7,5.54,5.54,0,0,1-1.8-.2l-6-1.2a135.6,135.6,0,0,0-19.2-1.4,132.66,132.66,0,0,0-20,1.5c-2.2.3-4.3.7-6.5,1.1a7.78,7.78,0,0,1-9.3-6.8c-.3-2.3-.7-4.7-1.1-7a47.51,47.51,0,0,1,24.3-15.7,49.16,49.16,0,0,1,12.2-1.6,46,46,0,0,1,11.8,1.5A46.8,46.8,0,0,1,361.89,103.54Z"/><path class="cls-12" d="M376.59,61.64c-.3.5-.6,1.1-.9,1.6a4.67,4.67,0,0,0-.5,1h0c-.2.4-.5.9-.7,1.3s-.5.9-.7,1.4a149,149,0,0,0-7.3,17.9,140.22,140.22,0,0,0-4.6,18.6c-.1.5-.2,1.1-.3,1.6a.6.6,0,0,1-.1.4c-.1.6-.2,1.2-.3,1.9s-.2,1.2-.3,1.9v.2c-.1.4-.1.8-.2,1.3v.4a8,8,0,0,1-7.6,7,5.54,5.54,0,0,1-1.8-.2l-6-1.2a47.77,47.77,0,0,1-7.7-28.4,47,47,0,0,1,2.3-12.1,48.72,48.72,0,0,1,5.1-10.8,46.48,46.48,0,0,1,21.3-18c.5.3,1.1.6,1.6.9s.7.4,1.1.6a4.88,4.88,0,0,0,.7.3c.5.3,1,.5,1.6.8h0c.5.2.9.4,1.4.6.1,0,.2.1.3.1A7.86,7.86,0,0,1,376.59,61.64Z"/><path class="cls-13" d="M376.59,61.64c-.3.5-.6,1.1-.9,1.6a4.67,4.67,0,0,0-.5,1h0c-.2.4-.5.9-.7,1.3s-.5.9-.7,1.4a47.37,47.37,0,0,1-28.8-1.6,43.84,43.84,0,0,1-10.8-5.9,48.53,48.53,0,0,1-8.7-8.2A47.34,47.34,0,0,1,314.89,25l1.4-1.4a15.38,15.38,0,0,0,1.2-1.3c.5-.5,1.1-1.1,1.6-1.7l.4-.4a7.84,7.84,0,0,1,11.5,0l.6.6h0c0,.1.1.1.2.2l.1.1.9.9c.6.6,1.1,1.2,1.7,1.7l1.4,1.4A137.53,137.53,0,0,0,350.09,37a133,133,0,0,0,16.3,10.1c.5.3,1.1.6,1.6.9s.7.4,1.1.6a4.88,4.88,0,0,0,.7.3c.5.3,1,.5,1.6.8h0c.5.2.9.4,1.4.6.1,0,.2.1.3.1A8.32,8.32,0,0,1,376.59,61.64Z"/><path class="cls-14" d="M335.79,25.34a46.77,46.77,0,0,1-10.4,26,48,48,0,0,1-8.9,8.5,46.1,46.1,0,0,1-10.4,5.7,47.63,47.63,0,0,1-29.1,1.8,13,13,0,0,1-.8-1.7c-.2-.5-.5-.9-.7-1.4s-.7-1.2-1-1.9c-.1-.1-.1-.3-.2-.4a8,8,0,0,1,3.5-11,9.29,9.29,0,0,0,1-.5c.1,0,.2-.1.3-.1a5.94,5.94,0,0,0,.8-.4l1.2-.6c1.1-.6,2.2-1.1,3.3-1.8a127.8,127.8,0,0,0,15.1-9.6A137.18,137.18,0,0,0,314.79,25l1.4-1.4a15.38,15.38,0,0,0,1.2-1.3c.5-.5,1.1-1.1,1.6-1.7l.4-.4a7.84,7.84,0,0,1,11.5,0l.6.6h0c0,.1.1.1.2.2l.1.1.9.9c.6.6,1.1,1.2,1.7,1.7A12.21,12.21,0,0,0,335.79,25.34Z"/><path class="cls-15" d="M313.59,88.44a47.51,47.51,0,0,0-24.3,15.7A137.15,137.15,0,0,0,277,67.34a13,13,0,0,1-.8-1.7c-.2-.5-.5-.9-.7-1.4s-.7-1.2-1-1.9c-.1-.1-.1-.3-.2-.4a8,8,0,0,1,3.5-11,9.29,9.29,0,0,0,1-.5c.1,0,.2-.1.3-.1a5.94,5.94,0,0,0,.8-.4l1.2-.6c1.1-.6,2.2-1.1,3.3-1.8a47.1,47.1,0,0,1,26.9,29A43.13,43.13,0,0,1,313.59,88.44Z"/><path class="cls-9" d="M344.79,65.44a48.72,48.72,0,0,0-5.1,10.8,46.78,46.78,0,0,0-2.2,12.1,46,46,0,0,0-11.8-1.5,49.16,49.16,0,0,0-12.2,1.6,48.25,48.25,0,0,0-2.2-11.7,47.3,47.3,0,0,0-5.3-11.1,46.74,46.74,0,0,0,10.5-5.7,45,45,0,0,0,8.9-8.5,48.53,48.53,0,0,0,8.7,8.2A46.35,46.35,0,0,0,344.79,65.44Z"/><polygon class="cls-3" points="325.39 68.04 326.69 63.64 326.69 68.14 329.19 64.44 327.79 68.74 331.39 65.94 328.89 69.64 332.99 68.04 329.49 70.74 333.99 70.34 329.79 71.94 334.19 72.94 329.59 73.24 333.59 75.64 329.19 74.64 332.29 77.84 328.39 75.64 330.29 79.54 327.29 76.34 327.99 80.74 326.09 76.64 325.39 81.24 324.79 76.64 322.89 80.74 323.39 76.34 320.39 79.54 322.39 75.64 318.39 77.84 321.49 74.64 317.19 75.64 321.09 73.24 316.59 72.94 320.99 71.94 316.89 70.34 321.29 70.74 317.69 68.04 321.99 69.64 319.29 65.94 322.89 68.74 321.49 64.44 323.99 68.14 323.99 63.64 325.39 68.04"/><path d="M420.25,39.8H417l-8.72-10.2-.33-.43a3.35,3.35,0,0,1-.19-.3h-.06V39.8H405.3V17.72h2.37V28.1h.06a3.53,3.53,0,0,1,.24-.34,4.44,4.44,0,0,1,.3-.37l8.37-9.67h3l-9.45,10.61Z"/><path d="M438.57,39.8h-2.8l-3.53-6.29a7.2,7.2,0,0,0-1.82-2.37,3.36,3.36,0,0,0-2-.56h-2.54V39.8h-2.39V17.72h6.44a7.34,7.34,0,0,1,4.79,1.53,5.37,5.37,0,0,1,1.88,4.42,6.17,6.17,0,0,1-1.24,3.92,6.53,6.53,0,0,1-3.46,2.25v.06a5.25,5.25,0,0,1,1.3,1,8,8,0,0,1,1.2,1.65ZM425.88,19.87v8.57h3.54a4.67,4.67,0,0,0,3.37-1.25,4.32,4.32,0,0,0,1.31-3.31,3.8,3.8,0,0,0-1.17-2.94,4.81,4.81,0,0,0-3.38-1.07Z"/><path d="M444.71,39.8h-2.38V17.72h2.38Z"/><path d="M463.68,19.87h-6.37V39.8h-2.37V19.87h-6.38V17.72h15.12Z"/><path d="M482.61,39.8H479.8l-3.52-6.29a7.34,7.34,0,0,0-1.82-2.37,3.36,3.36,0,0,0-2-.56h-2.54V39.8h-2.39V17.72H474a7.36,7.36,0,0,1,4.79,1.53,5.37,5.37,0,0,1,1.88,4.42,6.23,6.23,0,0,1-1.24,3.92,6.53,6.53,0,0,1-3.46,2.25v.06a5.2,5.2,0,0,1,1.29,1,8,8,0,0,1,1.2,1.65ZM469.92,19.87v8.57h3.54a4.67,4.67,0,0,0,3.37-1.25,4.36,4.36,0,0,0,1.31-3.31A3.8,3.8,0,0,0,477,20.94a4.82,4.82,0,0,0-3.39-1.07Z"/><path d="M488.75,39.8h-2.39V17.72h2.39Z"/><path d="M497.17,31.58V39.8H494.8V17.72h5.91a7.9,7.9,0,0,1,5.45,1.72,6.24,6.24,0,0,1,1.91,4.91,6.84,6.84,0,0,1-2.13,5.21,8.09,8.09,0,0,1-5.81,2Zm0-11.73v9.61H500a6,6,0,0,0,4.18-1.3,4.69,4.69,0,0,0,1.43-3.66,4.44,4.44,0,0,0-1.31-3.5,5.86,5.86,0,0,0-4-1.15Z"/><path d="M449.56,66.19h-17.5v50.32H418.71V66.19H401.29V55.31h48.27Z"/><path d="M508.07,116.51H492.92l-8.28-15.24a21.82,21.82,0,0,0-4-5.59A7.48,7.48,0,0,0,476,93.59H472.1v22.92H458.78V55.31h21.55q11,0,16.52,4.31t5.55,13a16.2,16.2,0,0,1-3.56,10.52,20.9,20.9,0,0,1-9.76,6.55v.17a11.42,11.42,0,0,1,5,3.48A30.82,30.82,0,0,1,498,98.88Zm-36-51.13V83.43h6.23a9.89,9.89,0,0,0,7.28-2.73,9.15,9.15,0,0,0,2.75-6.79q0-4.22-2.44-6.38t-7.34-2.15Z"/><path d="M511.4,112.37,516.91,102a35.41,35.41,0,0,0,8.06,3.78,25.93,25.93,0,0,0,7.26,1c3.27,0,5.73-.64,7.37-1.94a6.5,6.5,0,0,0,2.45-5.4,6.35,6.35,0,0,0-2-5c-1.31-1.18-3.68-2.18-7.13-3Q522.79,89,518.19,84.73T513.58,72.8a17.06,17.06,0,0,1,6-13.12q6-5.4,16.7-5.4a37.84,37.84,0,0,1,8.82,1,37.19,37.19,0,0,1,8.3,3l-5.08,10.5A30.31,30.31,0,0,0,541.65,66a21.74,21.74,0,0,0-5.88-.88,11.15,11.15,0,0,0-6.59,1.69,5.6,5.6,0,0,0-2.37,4.84,5.08,5.08,0,0,0,2.16,4.4c1.44,1,4,2,7.74,2.9q9.85,2.31,14.26,6.76t4.39,12.53a17.77,17.77,0,0,1-6.06,14q-6.06,5.36-17.54,5.35a43.48,43.48,0,0,1-10.6-1.36A38.21,38.21,0,0,1,511.4,112.37Z"/></svg>